<?xml version="1.0" encoding="UTF-8"?>
<svg width="512" height="512" version="1.1" viewBox="0 0 512 512" xmlns="http://www.w3.org/2000/svg">
  <rect width="512" height="512" fill="#1976d2" rx="64" ry="64"/>
  <g fill="#ffffff" transform="matrix(1.2 0 0 1.2 -51.2 -51.2)">
    <path d="m170.67 128h170.67c11.782 0 21.333 9.5515 21.333 21.333v213.33c0 11.782-9.5515 21.333-21.333 21.333h-170.67c-11.782 0-21.333-9.5515-21.333-21.333v-213.33c0-11.782 9.5515-21.333 21.333-21.333zm0 42.667v170.67h170.67v-170.67z"/>
    <rect x="192" y="213.33" width="128" height="21.333" rx="10.667" ry="10.667"/>
    <rect x="192" y="256" width="128" height="21.333" rx="10.667" ry="10.667"/>
    <rect x="192" y="298.67" width="85.333" height="21.333" rx="10.667" ry="10.667"/>
  </g>
</svg> 